<?xml version="1.0" encoding="UTF-8"?>
<svg id="Capa_1" data-name="Capa 1" xmlns="http://www.w3.org/2000/svg" width="238" height="270" viewBox="0 0 238 270">
  <defs>
    <style>
      .cls-1 {
        fill: #2f2f2f;
      }
    </style>
  </defs>
  <path class="cls-1" d="m140.68,93.11l26.97-12.95c3.44-1.69,7.06,1.95,5.46,5.5l-12.86,27.35c-1.18,2.46.34,5.42,3.02,5.84l68.82,10.92c4.62.76,4.62,7.37,0,8.13l-68.82,11.01c-2.69.42-4.2,3.39-3.02,5.84l12.94,27.35c1.68,3.47-1.93,7.11-5.46,5.5l-26.97-12.87c-2.52-1.19-5.46.42-5.8,3.22l-11.01,86.36c-.59,4.83-7.48,4.83-8.07,0l-10.92-86.27c-.34-2.79-3.28-4.4-5.8-3.22l-26.97,12.95c-3.44,1.69-7.06-1.95-5.46-5.5l12.86-27.35c1.18-2.46-.34-5.42-3.11-5.84l-70.58-11.01c-4.62-.68-4.62-7.45,0-8.13l70.5-11.01c2.69-.42,4.2-3.39,3.02-5.84l-12.94-27.35c-1.68-3.47,1.93-7.11,5.46-5.5l26.97,12.87c2.52,1.19,5.46-.42,5.8-3.22L115.81,3.62c.59-4.83,7.48-4.83,8.07,0l10.92,86.27c.34,2.79,3.28,4.4,5.8,3.22h.08Z"/>
</svg>