<?xml version="1.0" encoding="UTF-8"?>
<svg id="Capa_1" data-name="Capa 1" xmlns="http://www.w3.org/2000/svg" width="27.74" height="31.61" viewBox="0 0 27.74 31.61">
  <defs>
    <style>
      .cls-1 {
        fill: #1d1d1b;
      }
    </style>
  </defs>
  <path class="cls-1" d="m16.45,10.99l3.21-1.53c.41-.2.84.23.65.65l-1.53,3.23c-.14.29.04.64.36.69l8.19,1.29c.55.09.55.87,0,.96l-8.19,1.3c-.32.05-.5.4-.36.69l1.54,3.23c.2.41-.23.84-.65.65l-3.21-1.52c-.3-.14-.65.05-.69.38l-1.31,10.2c-.07.57-.89.57-.96,0l-1.3-10.19c-.04-.33-.39-.52-.69-.38l-3.21,1.53c-.41.2-.84-.23-.65-.65l1.53-3.23c.14-.29-.04-.64-.37-.69L.41,16.3c-.55-.08-.55-.88,0-.96l8.39-1.3c.32-.05.5-.4.36-.69l-1.54-3.23c-.2-.41.23-.84.65-.65l3.21,1.52c.3.14.65-.05.69-.38L13.49.42c.07-.57.89-.57.96,0l1.3,10.19c.04.33.39.52.69.38Z"/>
</svg>