<?xml version="1.0" encoding="UTF-8"?>
<svg id="Capa_1" data-name="Capa 1" xmlns="http://www.w3.org/2000/svg" width="165.13" height="188.15" viewBox="0 0 165.13 188.15">
  <defs>
    <style>
      .cls-1 {
        fill: #e30613;
      }
    </style>
  </defs>
  <path class="cls-1" d="m97.91,65.41l19.1-9.11c2.46-1.17,5.02,1.39,3.86,3.85l-9.12,19.24c-.83,1.75.26,3.8,2.16,4.1l48.77,7.67c3.26.51,3.26,5.2,0,5.71l-48.74,7.72c-1.91.3-2.99,2.36-2.16,4.1l9.16,19.21c1.17,2.46-1.39,5.02-3.85,3.86l-19.14-9.07c-1.78-.84-3.86.3-4.11,2.24l-7.8,60.69c-.43,3.37-5.31,3.36-5.74,0l-7.75-60.64c-.25-1.95-2.34-3.09-4.11-2.24l-19.1,9.11c-2.46,1.17-5.02-1.39-3.86-3.85l9.11-19.23c.83-1.75-.26-3.8-2.17-4.1l-49.98-7.68c-3.27-.5-3.27-5.21,0-5.72l49.95-7.73c1.91-.3,3-2.35,2.17-4.1l-9.16-19.2c-1.17-2.46,1.39-5.02,3.85-3.86l19.14,9.07c1.78.84,3.86-.3,4.11-2.24l7.8-60.69c.43-3.37,5.31-3.36,5.74,0l7.75,60.64c.25,1.95,2.34,3.09,4.11,2.24Z"/>
</svg>